
      <svg data-logo="logo" xmlns="http://www.w3.org/2000/svg" viewBox="0 0 288 43">
        <g id="logogram" transform="translate(0, 1) rotate(0) "><path fill-rule="evenodd" clip-rule="evenodd" d="M20.0316 7.05615C20.0316 6.15331 19.8214 5.26287 19.4176 4.45534C19.0686 3.75731 18.8637 2.99619 18.815 2.21729L18.6982 0.349945L18.5816 2.21722C18.5328 2.99613 18.3279 3.75728 17.9789 4.45531C17.5752 5.26286 17.3649 6.15333 17.3649 7.05619V33.6437C17.3649 34.5465 17.5752 35.437 17.9789 36.2446C18.3279 36.9426 18.5328 37.7038 18.5816 38.4827L18.6982 40.3499L18.815 38.4826C18.8637 37.7037 19.0686 36.9426 19.4176 36.2445C19.8214 35.437 20.0316 34.5466 20.0316 33.6437V7.05615ZM12.7509 7.122C13.1547 7.92954 13.3649 8.82003 13.3649 9.72286V30.977C13.3649 31.8799 13.1547 32.7704 12.7509 33.5779C12.4019 34.2759 12.197 35.0371 12.1482 35.8159L12.0316 37.6833L11.9149 35.8159C11.8662 35.0371 11.6612 34.2759 11.3122 33.5779C10.9084 32.7704 10.6982 31.8799 10.6982 30.977V9.72286C10.6982 8.82003 10.9084 7.92954 11.3122 7.122C11.6612 6.42397 11.8662 5.66284 11.9149 4.88393L12.0316 3.01662L12.1482 4.88393C12.197 5.66284 12.4019 6.42397 12.7509 7.122ZM10.0316 12.3895C10.0316 11.4866 9.82141 10.5962 9.41757 9.78869C9.06857 9.09061 8.86363 8.32949 8.81495 7.55058L8.69824 5.68327L8.58153 7.55058C8.53285 8.32949 8.3279 9.09061 7.97888 9.78869C7.57512 10.5962 7.36491 11.4866 7.36491 12.3895V28.3104C7.36491 29.2132 7.57512 30.1037 7.97888 30.9112C8.3279 31.6093 8.53285 32.3704 8.58153 33.1493L8.69824 35.0166L8.81495 33.1493C8.86363 32.3704 9.06857 31.6093 9.41757 30.9112C9.82141 30.1037 10.0316 29.2132 10.0316 28.3104V12.3895ZM6.08427 15.1219C6.48803 15.9295 6.69824 16.8199 6.69824 17.7229V22.977C6.69824 23.8799 6.48803 24.7704 6.08427 25.5779C5.73525 26.2759 5.5303 27.037 5.48162 27.8159L5.36491 29.6833L5.2482 27.8159C5.19952 27.037 4.99457 26.2759 4.64555 25.5779C4.24178 24.7704 4.03158 23.8799 4.03158 22.977V17.7229C4.03158 16.8199 4.24178 15.9295 4.64555 15.1219C4.99457 14.4239 5.19952 13.6628 5.2482 12.8839L5.36491 11.0166L5.48162 12.8839C5.5303 13.6628 5.73525 14.4239 6.08427 15.1219ZM3.36478 20.3499L3.36491 20.3895V20.3104L3.36478 20.3499ZM0.698242 20.3895L0.698377 20.3499C0.704425 21.2393 0.914348 22.1155 1.31222 22.9112C1.66123 23.6093 1.86618 24.3704 1.91487 25.1493L2.03158 27.0166L2.14828 25.1493C2.19697 24.3704 2.40192 23.6093 2.75093 22.9112C3.1488 22.1155 3.35873 21.2393 3.36478 20.3499C3.35873 19.4606 3.1488 18.5844 2.75093 17.7887C2.40192 17.0906 2.19697 16.3295 2.14828 15.5506L2.03158 13.6833L1.91487 15.5506C1.86618 16.3295 1.66123 17.0906 1.31222 17.7887C0.914348 18.5844 0.704425 19.4606 0.698377 20.3499L0.698242 20.3104V20.3895ZM16.0842 4.45533C16.4881 5.26286 16.6982 6.15332 16.6982 7.05617V33.6437C16.6982 34.5466 16.4881 35.437 16.0842 36.2445C15.7352 36.9426 15.5303 37.7037 15.4816 38.4826L15.3649 40.3499L15.2482 38.4826C15.1995 37.7037 14.9946 36.9426 14.6456 36.2445C14.2417 35.437 14.0316 34.5466 14.0316 33.6437V7.05617C14.0316 6.15332 14.2417 5.26286 14.6456 4.45533C14.9946 3.75729 15.1995 2.99615 15.2482 2.21725L15.3649 0.349945L15.4816 2.21725C15.5303 2.99615 15.7352 3.75729 16.0842 4.45533ZM22.7509 4.45533C23.1547 5.26286 23.3649 6.15332 23.3649 7.05617V33.6437C23.3649 34.5466 23.1547 35.437 22.7509 36.2445C22.4019 36.9426 22.197 37.7037 22.1482 38.4826L22.0316 40.3499L21.9149 38.4826C21.8662 37.7037 21.6612 36.9426 21.3122 36.2445C20.9084 35.437 20.6982 34.5466 20.6982 33.6437V7.05617C20.6982 6.15332 20.9084 5.26286 21.3122 4.45533C21.6612 3.75729 21.8662 2.99615 21.9149 2.21725L22.0316 0.349945L22.1482 2.21725C22.197 2.99615 22.4019 3.75729 22.7509 4.45533ZM26.6982 9.72286C26.6982 8.82003 26.4881 7.92954 26.0842 7.122C25.7352 6.42397 25.5303 5.66284 25.4816 4.88393L25.3649 3.01662L25.2482 4.88393C25.1995 5.66284 24.9946 6.42397 24.6456 7.122C24.2417 7.92954 24.0316 8.82003 24.0316 9.72286V30.977C24.0316 31.8799 24.2417 32.7704 24.6456 33.5779C24.9946 34.2759 25.1995 35.0371 25.2482 35.8159L25.3649 37.6833L25.4816 35.8159C25.5303 35.0371 25.7352 34.2759 26.0842 33.5779C26.4881 32.7704 26.6982 31.8799 26.6982 30.977V9.72286ZM29.4176 9.78869C29.8214 10.5962 30.0316 11.4866 30.0316 12.3895V28.3104C30.0316 29.2132 29.8214 30.1037 29.4176 30.9112C29.0686 31.6093 28.8637 32.3704 28.8149 33.1493L28.6982 35.0166L28.5816 33.1493C28.5328 32.3704 28.3279 31.6093 27.9789 30.9112C27.5752 30.1037 27.3649 29.2132 27.3649 28.3104V12.3895C27.3649 11.4866 27.5752 10.5962 27.9789 9.78869C28.3279 9.09061 28.5328 8.32949 28.5816 7.55058L28.6982 5.68327L28.8149 7.55058C28.8637 8.32949 29.0686 9.09061 29.4176 9.78869ZM33.3649 17.7229C33.3649 16.8199 33.1547 15.9295 32.7509 15.1219C32.4019 14.4239 32.197 13.6628 32.1482 12.8839L32.0316 11.0166L31.9149 12.8839C31.8662 13.6628 31.6612 14.4239 31.3122 15.1219C30.9085 15.9295 30.6982 16.8199 30.6982 17.7229V22.977C30.6982 23.8799 30.9085 24.7704 31.3122 25.5779C31.6612 26.2759 31.8662 27.037 31.9149 27.8159L32.0316 29.6833L32.1482 27.8159C32.197 27.037 32.4019 26.2759 32.7509 25.5779C33.1547 24.7704 33.3649 23.8799 33.3649 22.977V17.7229ZM36.6981 20.3499C36.6982 20.3631 36.6982 20.3763 36.6982 20.3895V20.3104C36.6982 20.3236 36.6982 20.3368 36.6981 20.3499ZM34.0317 20.3499C34.0377 21.2393 34.2477 22.1155 34.6456 22.9112C34.9946 23.6093 35.1995 24.3704 35.2482 25.1493L35.3649 27.0166L35.4816 25.1493C35.5303 24.3704 35.7352 23.6093 36.0842 22.9112C36.4822 22.1155 36.6921 21.2393 36.6981 20.3499C36.6921 19.4606 36.4822 18.5844 36.0842 17.7887C35.7352 17.0906 35.5303 16.3295 35.4816 15.5506L35.3649 13.6833L35.2482 15.5506C35.1995 16.3295 34.9946 17.0906 34.6456 17.7887C34.2477 18.5844 34.0377 19.4606 34.0317 20.3499ZM34.0317 20.3499C34.0317 20.3368 34.0316 20.3236 34.0316 20.3104V20.3895C34.0316 20.3763 34.0317 20.3631 34.0317 20.3499Z" fill="#394149"/></g>
        <g id="logotype" transform="translate(43, 1.5)"><path fill="#111111" d="M18.85 19.82L12.15 27.24L12.15 22.49Q12.94 21.07 13.69 19.88Q14.44 18.68 15.35 17.47Q16.25 16.27 17.42 14.85L17.42 14.85L23.65 7.54L30.03 7.54L19.28 19.98L18.85 19.82ZM13.52 33L8.31 33L8.31 7.54L13.52 7.54L13.52 14.49L13.42 20.99L13.52 23.53L13.52 33ZM30.30 33L24.13 33L16.58 21.52L19.88 17.62L30.30 33ZM36.42 33.38L36.42 33.38Q34.61 33.38 33.16 32.74Q31.72 32.09 30.89 30.82Q30.06 29.55 30.06 27.65L30.06 27.65Q30.06 26.06 30.65 24.98Q31.24 23.91 32.26 23.26Q33.27 22.61 34.56 22.27Q35.85 21.93 37.27 21.79L37.27 21.79Q38.93 21.62 39.95 21.47Q40.96 21.33 41.43 21.01Q41.90 20.70 41.90 20.08L41.90 20.08L41.90 19.99Q41.90 19.17 41.56 18.61Q41.22 18.05 40.55 17.75Q39.89 17.45 38.91 17.45L38.91 17.45Q37.92 17.45 37.19 17.75Q36.45 18.05 35.99 18.54Q35.53 19.04 35.31 19.65L35.31 19.65L30.61 18.87Q31.10 17.21 32.25 16.05Q33.39 14.88 35.09 14.27Q36.79 13.65 38.91 13.65L38.91 13.65Q40.47 13.65 41.92 14.02Q43.37 14.39 44.53 15.16Q45.68 15.93 46.36 17.16Q47.03 18.39 47.03 20.13L47.03 20.13L47.03 33L42.18 33L42.18 30.35L42.01 30.35Q41.54 31.24 40.78 31.91Q40.01 32.59 38.92 32.98Q37.84 33.38 36.42 33.38ZM37.87 29.77L37.87 29.77Q39.08 29.77 40.00 29.29Q40.91 28.81 41.43 27.99Q41.94 27.17 41.94 26.16L41.94 26.16L41.94 24.10Q41.72 24.27 41.25 24.40Q40.79 24.54 40.23 24.64Q39.66 24.75 39.12 24.83Q38.57 24.92 38.14 24.97L38.14 24.97Q37.20 25.10 36.49 25.41Q35.77 25.72 35.38 26.22Q34.98 26.73 34.98 27.51L34.98 27.51Q34.98 28.25 35.36 28.75Q35.73 29.26 36.38 29.51Q37.02 29.77 37.87 29.77ZM55.71 33.24L55.71 33.24Q53.73 33.24 52.24 32.38Q50.75 31.51 49.94 29.90Q49.13 28.28 49.13 26.04L49.13 26.04L49.13 13.89L54.26 13.89L54.26 25.16Q54.26 26.93 55.18 27.94Q56.10 28.95 57.71 28.95L57.71 28.95Q58.80 28.95 59.64 28.48Q60.48 28.01 60.95 27.11Q61.42 26.22 61.42 24.95L61.42 24.95L61.42 13.89L66.55 13.89L66.55 33L61.71 33L61.64 28.23L61.93 28.23Q61.18 30.64 59.63 31.94Q58.09 33.24 55.71 33.24ZM73.98 33.38L73.98 33.38Q72.17 33.38 70.72 32.74Q69.28 32.09 68.45 30.82Q67.62 29.55 67.62 27.65L67.62 27.65Q67.62 26.06 68.21 24.98Q68.80 23.91 69.82 23.26Q70.83 22.61 72.12 22.27Q73.41 21.93 74.83 21.79L74.83 21.79Q76.49 21.62 77.51 21.47Q78.52 21.33 78.99 21.01Q79.46 20.70 79.46 20.08L79.46 20.08L79.46 19.99Q79.46 19.17 79.12 18.61Q78.78 18.05 78.11 17.75Q77.45 17.45 76.47 17.45L76.47 17.45Q75.48 17.45 74.75 17.75Q74.01 18.05 73.55 18.54Q73.09 19.04 72.87 19.65L72.87 19.65L68.17 18.87Q68.66 17.21 69.81 16.05Q70.95 14.88 72.65 14.27Q74.35 13.65 76.47 13.65L76.47 13.65Q78.03 13.65 79.48 14.02Q80.93 14.39 82.09 15.16Q83.24 15.93 83.91 17.16Q84.59 18.39 84.59 20.13L84.59 20.13L84.59 33L79.74 33L79.74 30.35L79.57 30.35Q79.10 31.24 78.34 31.91Q77.57 32.59 76.48 32.98Q75.40 33.38 73.98 33.38ZM75.43 29.77L75.43 29.77Q76.64 29.77 77.56 29.29Q78.47 28.81 78.98 27.99Q79.50 27.17 79.50 26.16L79.50 26.16L79.50 24.10Q79.28 24.27 78.81 24.40Q78.35 24.54 77.79 24.64Q77.22 24.75 76.68 24.83Q76.13 24.92 75.70 24.97L75.70 24.97Q74.76 25.10 74.05 25.41Q73.33 25.72 72.93 26.22Q72.54 26.73 72.54 27.51L72.54 27.51Q72.54 28.25 72.92 28.75Q73.29 29.26 73.93 29.51Q74.58 29.77 75.43 29.77ZM91.82 21.94L91.82 21.94L91.82 33L86.69 33L86.69 13.89L91.53 13.89L91.61 18.66L91.30 18.66Q92.06 16.27 93.59 14.96Q95.12 13.65 97.54 13.65L97.54 13.65Q99.52 13.65 100.99 14.52Q102.46 15.38 103.28 17.00Q104.10 18.61 104.10 20.85L104.10 20.85L104.10 33L98.98 33L98.98 21.74Q98.98 19.96 98.06 18.95Q97.15 17.94 95.53 17.94L95.53 17.94Q94.45 17.94 93.60 18.41Q92.76 18.88 92.29 19.77Q91.82 20.66 91.82 21.94ZM121.67 33.38L121.67 33.38Q118.61 33.38 116.35 32.44Q114.08 31.50 112.82 29.65Q111.55 27.80 111.48 25.10L111.48 25.10L116.56 25.10Q116.66 26.39 117.33 27.25Q117.99 28.11 119.11 28.54Q120.22 28.97 121.62 28.97L121.62 28.97Q123.02 28.97 124.05 28.57Q125.09 28.16 125.67 27.43Q126.25 26.69 126.25 25.72L126.25 25.72Q126.25 24.85 125.73 24.26Q125.21 23.67 124.23 23.24Q123.26 22.81 121.86 22.49L121.86 22.49L119.05 21.79Q115.82 21.00 114.00 19.32Q112.17 17.64 112.17 14.87L112.17 14.87Q112.17 12.56 113.41 10.83Q114.64 9.11 116.81 8.15Q118.97 7.19 121.74 7.19L121.74 7.19Q124.56 7.19 126.66 8.16Q128.76 9.13 129.94 10.84Q131.12 12.56 131.15 14.80L131.15 14.80L126.11 14.80Q125.98 13.26 124.80 12.42Q123.63 11.59 121.69 11.59L121.69 11.59Q120.37 11.59 119.43 11.96Q118.49 12.34 117.99 13.00Q117.50 13.67 117.50 14.53L117.50 14.53Q117.50 15.47 118.07 16.09Q118.64 16.71 119.58 17.10Q120.51 17.48 121.58 17.74L121.58 17.74L123.89 18.30Q125.50 18.66 126.88 19.28Q128.27 19.89 129.31 20.79Q130.35 21.69 130.92 22.92Q131.50 24.15 131.50 25.75L131.50 25.75Q131.50 28.06 130.33 29.78Q129.17 31.50 126.97 32.44Q124.76 33.38 121.67 33.38ZM132.72 39.77L132.72 39.77L133.90 35.91L134.54 36.06Q135.56 36.33 136.36 36.21Q137.17 36.09 137.65 35.56Q138.14 35.03 138.24 34.08L138.24 34.08L138.38 33.05L131.20 13.89L136.65 13.89L139.87 23.81Q140.45 25.69 140.82 27.57Q141.18 29.45 141.66 31.50L141.66 31.50L140.47 31.50Q140.93 29.45 141.39 27.56Q141.85 25.67 142.47 23.81L142.47 23.81L145.81 13.89L151.20 13.89L143.08 35.26Q142.50 36.79 141.59 37.92Q140.69 39.05 139.34 39.67Q137.99 40.28 136.07 40.28L136.07 40.28Q135.05 40.28 134.16 40.14Q133.27 39.99 132.72 39.77ZM159.25 33.38L159.25 33.38Q156.94 33.38 155.16 32.72Q153.38 32.06 152.26 30.80Q151.13 29.55 150.80 27.77L150.80 27.77L155.57 26.95Q155.95 28.28 156.89 28.95Q157.83 29.62 159.40 29.62L159.40 29.62Q160.85 29.62 161.71 29.06Q162.56 28.51 162.56 27.65L162.56 27.65Q162.56 26.90 161.95 26.42Q161.35 25.94 160.10 25.69L160.10 25.69L156.80 25.00Q154.03 24.44 152.67 23.08Q151.30 21.72 151.30 19.58L151.30 19.58Q151.30 17.74 152.31 16.41Q153.32 15.09 155.11 14.37Q156.90 13.65 159.33 13.65L159.33 13.65Q161.59 13.65 163.24 14.28Q164.90 14.90 165.93 16.05Q166.95 17.19 167.29 18.75L167.29 18.75L162.75 19.55Q162.46 18.58 161.63 17.95Q160.80 17.33 159.40 17.33L159.40 17.33Q158.13 17.33 157.28 17.86Q156.43 18.39 156.43 19.26L156.43 19.26Q156.43 19.99 156.98 20.49Q157.54 20.99 158.89 21.26L158.89 21.26L162.32 21.94Q165.09 22.51 166.44 23.78Q167.79 25.05 167.79 27.10L167.79 27.10Q167.79 28.98 166.70 30.39Q165.60 31.80 163.68 32.59Q161.76 33.38 159.25 33.38ZM167.14 13.89L178.47 13.89L178.47 17.81L167.14 17.81L167.14 13.89ZM169.77 27.86L169.77 9.35L174.90 9.35L174.90 27.41Q174.90 28.32 175.30 28.75Q175.70 29.19 176.64 29.19L176.64 29.19Q176.93 29.19 177.46 29.11Q177.99 29.04 178.26 28.97L178.26 28.97L179.00 32.81Q178.14 33.07 177.30 33.17Q176.45 33.27 175.68 33.27L175.68 33.27Q172.81 33.27 171.29 31.87Q169.77 30.47 169.77 27.86L169.77 27.86ZM188.16 33.38L188.16 33.38Q185.23 33.38 183.12 32.18Q181.00 30.98 179.86 28.78Q178.72 26.57 178.72 23.55L178.72 23.55Q178.72 20.59 179.85 18.37Q180.98 16.15 183.05 14.90Q185.12 13.65 187.90 13.65L187.90 13.65Q189.78 13.65 191.40 14.25Q193.03 14.85 194.26 16.06Q195.49 17.26 196.18 19.07Q196.87 20.88 196.87 23.34L196.87 23.34L196.87 24.78L180.83 24.78L180.83 21.57L194.36 21.57L191.97 22.42Q191.97 20.93 191.52 19.83Q191.06 18.73 190.17 18.12Q189.27 17.52 187.94 17.52L187.94 17.52Q186.62 17.52 185.69 18.13Q184.76 18.75 184.28 19.80Q183.80 20.85 183.80 22.20L183.80 22.20L183.80 24.47Q183.80 26.13 184.35 27.26Q184.91 28.39 185.91 28.95Q186.91 29.51 188.24 29.51L188.24 29.51Q189.15 29.51 189.88 29.26Q190.62 29.00 191.14 28.50Q191.66 27.99 191.93 27.26L191.93 27.26L196.58 28.13Q196.12 29.70 194.98 30.89Q193.83 32.08 192.11 32.73Q190.40 33.38 188.16 33.38ZM203.23 33L198.10 33L198.10 13.89L202.85 13.89L203.11 18.64L202.73 18.64Q203.18 16.88 204.04 15.77Q204.90 14.66 206.07 14.13Q207.23 13.60 208.51 13.60L208.51 13.60Q210.58 13.60 211.84 14.91Q213.11 16.22 213.70 18.95L213.70 18.95L213.11 18.95Q213.53 17.12 214.50 15.94Q215.46 14.75 216.79 14.18Q218.11 13.60 219.57 13.60L219.57 13.60Q221.33 13.60 222.70 14.37Q224.08 15.14 224.87 16.59Q225.67 18.03 225.67 20.11L225.67 20.11L225.67 33L220.54 33L220.54 21.09Q220.54 19.46 219.66 18.68Q218.78 17.89 217.50 17.89L217.50 17.89Q216.54 17.89 215.83 18.31Q215.12 18.73 214.74 19.48Q214.35 20.23 214.35 21.24L214.35 21.24L214.35 33L209.40 33L209.40 20.95Q209.40 19.55 208.57 18.72Q207.74 17.89 206.42 17.89L206.42 17.89Q205.52 17.89 204.79 18.30Q204.07 18.71 203.65 19.51Q203.23 20.30 203.23 21.45L203.23 21.45L203.23 33ZM235.36 33.38L235.36 33.38Q233.05 33.38 231.27 32.72Q229.49 32.06 228.37 30.80Q227.24 29.55 226.91 27.77L226.91 27.77L231.68 26.95Q232.06 28.28 233.00 28.95Q233.94 29.62 235.51 29.62L235.51 29.62Q236.96 29.62 237.82 29.06Q238.67 28.51 238.67 27.65L238.67 27.65Q238.67 26.90 238.06 26.42Q237.46 25.94 236.21 25.69L236.21 25.69L232.91 25.00Q230.14 24.44 228.78 23.08Q227.41 21.72 227.41 19.58L227.41 19.58Q227.41 17.74 228.42 16.41Q229.43 15.09 231.22 14.37Q233.01 13.65 235.44 13.65L235.44 13.65Q237.70 13.65 239.35 14.28Q241.01 14.90 242.04 16.05Q243.06 17.19 243.40 18.75L243.40 18.75L238.86 19.55Q238.57 18.58 237.74 17.95Q236.91 17.33 235.51 17.33L235.51 17.33Q234.24 17.33 233.39 17.86Q232.54 18.39 232.54 19.26L232.54 19.26Q232.54 19.99 233.09 20.49Q233.65 20.99 235.00 21.26L235.00 21.26L238.43 21.94Q241.20 22.51 242.55 23.78Q243.90 25.05 243.90 27.10L243.90 27.10Q243.90 28.98 242.81 30.39Q241.71 31.80 239.79 32.59Q237.87 33.38 235.36 33.38Z"/></g>
        
      </svg>
    